<svg width="48" height="48" viewBox="0 0 48 48" fill="none" xmlns="http://www.w3.org/2000/svg">
<path d="M17.3867 8.5C18.1728 8.5 18.9273 8.80868 19.4883 9.35938L24.1133 13.9004H38.5C40.1569 13.9004 41.5 15.2435 41.5 16.9004V19.9004H42.9443C44.9773 19.9006 46.4213 21.8804 45.8008 23.8164L41.7627 36.416C41.3645 37.6576 40.2092 38.5 38.9053 38.5H8.5C6.84315 38.5 5.5 37.1569 5.5 35.5V11.5C5.5 9.84315 6.84315 8.5 8.5 8.5H17.3867ZM11.0557 35.5H38.9053L42.9443 22.9004H15.0947L11.0557 35.5ZM8.5 33.6455L12.2373 21.9844C12.6354 20.7427 13.7907 19.9004 15.0947 19.9004H38.5V16.9004H24.1133C23.3273 16.9004 22.5726 16.5916 22.0117 16.041L17.3867 11.5H8.5V33.6455Z" fill="#BCBCBC"/>
</svg>
