<svg width="48" height="48" viewBox="0 0 48 48" fill="none" xmlns="http://www.w3.org/2000/svg">
<path d="M17.8867 9C18.6728 9 19.4273 9.30868 19.9883 9.85938L24.6133 14.4004H39C40.6569 14.4004 42 15.7435 42 17.4004V20.4004H43.4443C45.4773 20.4006 46.9213 22.3804 46.3008 24.3164L42.2627 36.916C41.8645 38.1576 40.7092 39 39.4053 39H9C7.34315 39 6 37.6569 6 36V12C6 10.3431 7.34315 9 9 9H17.8867ZM11.5557 36H39.4053L43.4443 23.4004H15.5947L11.5557 36ZM9 34.1455L12.7373 22.4844C13.1354 21.2427 14.2907 20.4004 15.5947 20.4004H39V17.4004H24.6133C23.8273 17.4004 23.0726 17.0916 22.5117 16.541L17.8867 12H9V34.1455Z" fill="#BCBCBC"/>
</svg>
