<svg width="48" height="48" viewBox="0 0 48 48" fill="none" xmlns="http://www.w3.org/2000/svg">
<path d="M0.5 40V8C0.500001 6.067 2.067 4.5 4 4.5H15.8486C16.7658 4.5 17.6463 4.86039 18.3008 5.50293L24.4678 11.5566C24.5612 11.6483 24.6865 11.7001 24.8174 11.7002H44C45.933 11.7002 47.5 13.2672 47.5 15.2002V40C47.5 41.933 45.933 43.5 44 43.5H4C2.067 43.5 0.5 41.933 0.5 40ZM3.5 40C3.5 40.2761 3.72386 40.5 4 40.5H44C44.2761 40.5 44.5 40.2761 44.5 40V15.2002C44.5 14.9241 44.2761 14.7002 44 14.7002H24.8174C23.9004 14.7001 23.0196 14.3397 22.3652 13.6973L16.1992 7.64355C16.1057 7.55176 15.9797 7.5 15.8486 7.5H4C3.72386 7.5 3.5 7.72386 3.5 8V40Z" fill="#BCBCBC"/>
</svg>
