<svg width="48" height="48" viewBox="0 0 48 48" fill="none" xmlns="http://www.w3.org/2000/svg">
<path d="M0.5 40V8C0.500001 6.067 2.067 4.5 4 4.5H15.8486C16.7658 4.5 17.6463 4.86039 18.3008 5.50293L24.4678 11.5566C24.5612 11.6483 24.6865 11.7001 24.8174 11.7002H44C45.933 11.7002 47.5 13.2672 47.5 15.2002V40C47.5 41.933 45.933 43.5 44 43.5H4C2.067 43.5 0.5 41.933 0.5 40ZM3.5 40C3.5 40.2761 3.72386 40.5 4 40.5H44C44.2761 40.5 44.5 40.2761 44.5 40V15.2002C44.5 14.9241 44.2761 14.7002 44 14.7002H24.8174C23.9004 14.7001 23.0196 14.3397 22.3652 13.6973L16.1992 7.64355C16.1057 7.55176 15.9797 7.5 15.8486 7.5H4C3.72386 7.5 3.5 7.72386 3.5 8V40Z" fill="#BCBCBC"/>
<path d="M36.5 23.3693C36.5 24.341 36.338 25.2759 36.0141 26.174C35.6902 27.0721 35.2338 27.8672 34.6449 28.5592C34.0559 29.2512 33.3566 29.8033 32.5468 30.2155C31.737 30.6278 30.8389 30.8339 29.8525 30.8339C29.1605 30.8339 28.5127 30.7677 27.909 30.6352C27.3201 30.5026 26.7459 30.3039 26.1864 30.0389C25.6122 29.7739 25.0453 29.4499 24.4859 29.0671C23.9411 28.6843 23.3743 28.2426 22.7853 27.742C22.2995 27.3445 21.8283 26.9985 21.3719 26.7041C20.9302 26.3949 20.4885 26.1519 20.0468 25.9753C19.7376 25.8428 19.4211 25.7471 19.0972 25.6882C18.788 25.6293 18.4641 25.5998 18.1254 25.5998C17.6101 25.5998 17.1243 25.7102 16.6678 25.9311C16.2261 26.1372 15.8433 26.417 15.5194 26.7703C15.1955 27.1384 14.9379 27.5727 14.7465 28.0733C14.5551 28.5592 14.4594 29.0819 14.4594 29.6413L11.5 29.2659C11.5 28.2942 11.662 27.3666 11.9859 26.4832C12.3098 25.5998 12.7662 24.8269 13.3551 24.1643C13.9293 23.5018 14.6213 22.9791 15.4311 22.5963C16.2409 22.1988 17.139 22 18.1254 22C18.8027 22 19.4432 22.0736 20.0468 22.2208C20.6652 22.3534 21.2615 22.5521 21.8357 22.8171C22.4099 23.0822 22.9694 23.4061 23.5141 23.7889C24.0736 24.1717 24.6405 24.5986 25.2147 25.0698C25.5975 25.3937 25.9655 25.6882 26.3189 25.9532C26.6723 26.2035 27.0183 26.417 27.3569 26.5936C27.7544 26.8145 28.1593 26.9838 28.5716 27.1016C28.9838 27.2047 29.4108 27.2488 29.8525 27.2341C30.3678 27.2341 30.8463 27.1163 31.288 26.8807C31.7444 26.6452 32.1419 26.3286 32.4806 25.9311C32.8045 25.5483 33.0621 25.0992 33.2535 24.5839C33.4449 24.0686 33.5406 23.5312 33.5406 22.9717L36.5 23.3693Z" fill="#BCBCBC"/>
</svg>
